<svg xmlns="http://www.w3.org/2000/svg" viewBox="0 0 24 24">
  <path
    fill="currentColor"
    d="M9.2 3.5C6.9 3.5 5 5.2 4.8 7.4C3.2 8.1 2.2 9.7 2.2 11.5C2.2 13.3 3.2 14.9 4.8 15.6C5 18 7 19.9 9.4 19.9H10.7V3.5H9.2ZM8.2 8.8C8.8 8.8 9.3 9.3 9.3 9.9C9.3 10.5 8.8 11 8.2 11C7.6 11 7.1 10.5 7.1 9.9C7.1 9.3 7.6 8.8 8.2 8.8ZM8.4 15.2C7.8 15.2 7.3 14.7 7.3 14.1C7.3 13.5 7.8 13 8.4 13C9 13 9.5 13.5 9.5 14.1C9.5 14.7 9 15.2 8.4 15.2ZM14.8 3.5H13.3V19.9H14.6C17 19.9 19 18 19.2 15.6C20.8 14.9 21.8 13.3 21.8 11.5C21.8 9.7 20.8 8.1 19.2 7.4C19 5.2 17.1 3.5 14.8 3.5ZM15.8 8.8C16.4 8.8 16.9 9.3 16.9 9.9C16.9 10.5 16.4 11 15.8 11C15.2 11 14.7 10.5 14.7 9.9C14.7 9.3 15.2 8.8 15.8 8.8ZM15.6 15.2C15 15.2 14.5 14.7 14.5 14.1C14.5 13.5 15 13 15.6 13C16.2 13 16.7 13.5 16.7 14.1C16.7 14.7 16.2 15.2 15.6 15.2Z"
  />
</svg>