<svg xmlns="http://www.w3.org/2000/svg" viewBox="0 0 64 64">
  <path fill="black" d="
    M8 18
    C8 13.6 11.6 10 16 10
    H37
    C41.4 10 45 13.6 45 18
    V26
    L58 17
    V47
    L45 38
    V46
    C45 50.4 41.4 54 37 54
    H16
    C11.6 54 8 50.4 8 46
    V18
    Z

    M16 16
    C14.9 16 14 16.9 14 18
    V46
    C14 47.1 14.9 48 16 48
    H37
    C38.1 48 39 47.1 39 46
    V18
    C39 16.9 38.1 16 37 16
    H16
    Z

    M45 33
    L52 38
    V26
    L45 31
    V33
    Z
  "/>
</svg>